<?xml version="1.0" encoding="UTF-8" standalone="no"?>
<!DOCTYPE svg PUBLIC "-//W3C//DTD SVG 1.1//EN"
 "http://www.w3.org/Graphics/SVG/1.1/DTD/svg11.dtd">
<!-- Generated by graphviz version 2.40.1 (20161225.0304)
 -->
<!-- Title: D Pages: 1 -->
<svg width="1215pt" height="843pt"
 viewBox="0.00 0.00 1215.48 843.00" xmlns="http://www.w3.org/2000/svg" xmlns:xlink="http://www.w3.org/1999/xlink">
<g id="graph0" class="graph" transform="scale(1 1) rotate(0) translate(4 839)">
<title>D</title>
<polygon fill="#ffffff" stroke="transparent" points="-4,4 -4,-839 1211.4797,-839 1211.4797,4 -4,4"/>
<g id="clust1" class="cluster">
<title>cluster_l1</title>
<polygon fill="none" stroke="#000000" points="338.0091,-588 338.0091,-827 968.6003,-827 968.6003,-588 338.0091,-588"/>
<text text-anchor="middle" x="653.3047" y="-810.4" font-family="Times,serif" font-size="14.00" fill="#000000">Legend</text>
</g>
<g id="clust2" class="cluster">
<title>cluster_l2</title>
<polygon fill="none" stroke="#000000" points="465.151,-394 465.151,-512 676.9853,-512 676.9853,-394 465.151,-394"/>
<text text-anchor="middle" x="571.0682" y="-495.4" font-family="Times,serif" font-size="14.00" fill="#000000">SyncTmpData</text>
</g>
<!-- rank1 -->
<!-- rank2 -->
<!-- rank1&#45;&gt;rank2 -->
<!-- rank3 -->
<!-- rank2&#45;&gt;rank3 -->
<!-- rank4 -->
<!-- rank3&#45;&gt;rank4 -->
<!-- rank5 -->
<!-- rank4&#45;&gt;rank5 -->
<!-- rank6 -->
<!-- rank5&#45;&gt;rank6 -->
<!-- Start -->
<g id="node7" class="node">
<title>Start</title>
<polygon fill="none" stroke="#000000" points="41.3992,-360 .1006,-342 41.3992,-324 82.6978,-342 41.3992,-360"/>
<text text-anchor="middle" x="41.3992" y="-337.8" font-family="Times,serif" font-size="14.00" fill="#000000">Start</text>
</g>
<!-- FetchCompactBlocks -->
<g id="node8" class="node">
<title>FetchCompactBlocks</title>
<polygon fill="none" stroke="#ffa500" points="262.6948,-438 126.6216,-438 126.6216,-402 262.6948,-402 262.6948,-438"/>
<text text-anchor="middle" x="194.6582" y="-415.8" font-family="Times,serif" font-size="14.00" fill="#000000">FetchCompactBlocks</text>
</g>
<!-- Start&#45;&gt;FetchCompactBlocks -->
<g id="edge6" class="edge">
<title>Start&#45;&gt;FetchCompactBlocks</title>
<path fill="none" stroke="#000000" d="M58.548,-352.739C70.2718,-359.9225 86.2611,-369.4127 100.7984,-377 114.3543,-384.0751 129.2989,-391.2101 143.2012,-397.5793"/>
<polygon fill="#000000" stroke="#000000" points="142.0767,-400.9124 152.6295,-401.8562 144.9686,-394.5377 142.0767,-400.9124"/>
</g>
<!-- TrialDecryption -->
<g id="node9" class="node">
<title>TrialDecryption</title>
<polygon fill="none" stroke="#000000" points="434.0213,-386 327.6478,-386 327.6478,-350 434.0213,-350 434.0213,-386"/>
<text text-anchor="middle" x="380.8345" y="-363.8" font-family="Times,serif" font-size="14.00" fill="#000000">TrialDecryption</text>
</g>
<!-- Start&#45;&gt;TrialDecryption -->
<g id="edge7" class="edge">
<title>Start&#45;&gt;TrialDecryption</title>
<path fill="none" stroke="#000000" d="M76.7641,-344.7089C133.6513,-349.0663 246.2831,-357.6937 317.3504,-363.1373"/>
<polygon fill="#000000" stroke="#000000" points="317.2844,-366.6424 327.5225,-363.9164 317.8191,-359.6628 317.2844,-366.6424"/>
</g>
<!-- FetchTransparentTxIDs -->
<g id="node10" class="node">
<title>FetchTransparentTxIDs</title>
<polygon fill="none" stroke="#000000" points="269.378,-120 119.9383,-120 119.9383,-84 269.378,-84 269.378,-120"/>
<text text-anchor="middle" x="194.6582" y="-97.8" font-family="Times,serif" font-size="14.00" fill="#000000">FetchTransparentTxIDs</text>
</g>
<!-- Start&#45;&gt;FetchTransparentTxIDs -->
<g id="edge8" class="edge">
<title>Start&#45;&gt;FetchTransparentTxIDs</title>
<path fill="none" stroke="#000000" d="M49.5426,-327.2821C60.7053,-307.2816 81.5701,-270.5131 100.7984,-240 125.7491,-200.4061 156.5789,-155.8396 175.9368,-128.3368"/>
<polygon fill="#000000" stroke="#000000" points="178.8895,-130.223 181.7967,-120.0348 173.1706,-126.1863 178.8895,-130.223"/>
</g>
<!-- UpdateNotes -->
<g id="node11" class="node">
<title>UpdateNotes</title>
<polygon fill="none" stroke="#000000" points="776.1096,-356 686.9439,-356 686.9439,-320 776.1096,-320 776.1096,-356"/>
<text text-anchor="middle" x="731.5267" y="-333.8" font-family="Times,serif" font-size="14.00" fill="#000000">UpdateNotes</text>
</g>
<!-- Start&#45;&gt;UpdateNotes -->
<g id="edge9" class="edge">
<title>Start&#45;&gt;UpdateNotes</title>
<path fill="none" stroke="#000000" d="M82.0093,-341.6676C157.4746,-341.0599 324.4507,-339.7622 465.151,-339 538.3566,-338.6035 622.8795,-338.315 676.7329,-338.1525"/>
<polygon fill="#000000" stroke="#000000" points="676.7624,-341.6525 686.7519,-338.1227 676.7415,-334.6526 676.7624,-341.6525"/>
</g>
<!-- UpdateWitnesses -->
<g id="node12" class="node">
<title>UpdateWitnesses</title>
<polygon fill="none" stroke="#000000" points="943.5196,-458 830.1489,-458 830.1489,-422 943.5196,-422 943.5196,-458"/>
<text text-anchor="middle" x="886.8342" y="-435.8" font-family="Times,serif" font-size="14.00" fill="#000000">UpdateWitnesses</text>
</g>
<!-- Start&#45;&gt;UpdateWitnesses -->
<g id="edge10" class="edge">
<title>Start&#45;&gt;UpdateWitnesses</title>
<path fill="none" stroke="#000000" d="M44.3718,-358.9867C54.6387,-411.5456 93.6811,-568 194.6582,-568 194.6582,-568 194.6582,-568 571.0682,-568 680.8403,-568 797.3916,-500.7401 853.2119,-463.7326"/>
<polygon fill="#000000" stroke="#000000" points="855.2924,-466.5514 861.639,-458.0678 851.3872,-460.742 855.2924,-466.5514"/>
</g>
<!-- UpdateSpends -->
<g id="node13" class="node">
<title>UpdateSpends</title>
<polygon fill="none" stroke="#000000" points="935.2025,-256 838.4659,-256 838.4659,-220 935.2025,-220 935.2025,-256"/>
<text text-anchor="middle" x="886.8342" y="-233.8" font-family="Times,serif" font-size="14.00" fill="#000000">UpdateSpends</text>
</g>
<!-- Start&#45;&gt;UpdateSpends -->
<g id="edge11" class="edge">
<title>Start&#45;&gt;UpdateSpends</title>
<path fill="none" stroke="#000000" d="M53.5392,-329.0153C77.8134,-304.5366 135.1357,-254 194.6582,-254 194.6582,-254 194.6582,-254 731.5267,-254 763.654,-254 799.3237,-250.5702 828.3689,-246.8866"/>
<polygon fill="#000000" stroke="#000000" points="828.8893,-250.3484 838.3495,-245.5783 827.9794,-243.4078 828.8893,-250.3484"/>
</g>
<!-- FetchCompactBlocks&#45;&gt;TrialDecryption -->
<g id="edge13" class="edge">
<title>FetchCompactBlocks&#45;&gt;TrialDecryption</title>
<path fill="none" stroke="#ff0000" d="M259.2511,-401.9589C278.2112,-396.6632 298.9167,-390.8801 317.7795,-385.6116"/>
<polygon fill="#ff0000" stroke="#ff0000" points="318.7668,-388.9699 327.4566,-382.9087 316.8836,-382.2279 318.7668,-388.9699"/>
</g>
<!-- NullifierData -->
<g id="node15" class="node">
<title>NullifierData</title>
<ellipse fill="none" stroke="#000000" cx="571.0682" cy="-420" rx="62.5315" ry="18"/>
<text text-anchor="middle" x="571.0682" y="-415.8" font-family="Times,serif" font-size="14.00" fill="#000000">NullifierData</text>
</g>
<!-- FetchCompactBlocks&#45;&gt;NullifierData -->
<g id="edge12" class="edge">
<title>FetchCompactBlocks&#45;&gt;NullifierData</title>
<path fill="none" stroke="#ff0000" d="M262.8232,-420C329.3224,-420 430.1372,-420 498.1993,-420"/>
<polygon fill="#ff0000" stroke="#ff0000" points="498.4132,-423.5001 508.4132,-420 498.4131,-416.5001 498.4132,-423.5001"/>
</g>
<!-- NodeAndWitnessData -->
<g id="node16" class="node">
<title>NodeAndWitnessData</title>
<ellipse fill="none" stroke="#000000" cx="571.0682" cy="-461" rx="97.8344" ry="18"/>
<text text-anchor="middle" x="571.0682" y="-456.8" font-family="Times,serif" font-size="14.00" fill="#000000">NodeAndWitnessData</text>
</g>
<!-- FetchCompactBlocks&#45;&gt;NodeAndWitnessData -->
<g id="edge14" class="edge">
<title>FetchCompactBlocks&#45;&gt;NodeAndWitnessData</title>
<path fill="none" stroke="#ff0000" d="M262.8094,-430.7105C271.1237,-431.8884 279.5079,-433.0156 287.518,-434 348.3931,-441.4815 416.8398,-448.0514 471.232,-452.8368"/>
<polygon fill="#ff0000" stroke="#ff0000" points="470.9529,-456.3256 481.2196,-453.7094 471.5622,-449.3522 470.9529,-456.3256"/>
</g>
<!-- End -->
<g id="node18" class="node">
<title>End</title>
<polygon fill="none" stroke="#000000" points="1169.8717,-352 1132.1554,-334 1169.8717,-316 1207.5881,-334 1169.8717,-352"/>
<text text-anchor="middle" x="1169.8717" y="-329.8" font-family="Times,serif" font-size="14.00" fill="#000000">End</text>
</g>
<!-- FetchCompactBlocks&#45;&gt;End -->
<g id="edge28" class="edge">
<title>FetchCompactBlocks&#45;&gt;End</title>
<path fill="none" stroke="#000000" d="M211.178,-438.1643C241.5009,-469.4073 309.5039,-530 380.8345,-530 380.8345,-530 380.8345,-530 1046.432,-530 1125.4146,-530 1155.8628,-414.6316 1165.7586,-360.9189"/>
<polygon fill="#000000" stroke="#000000" points="1169.2096,-361.5022 1167.4721,-351.0508 1162.3128,-360.3046 1169.2096,-361.5022"/>
</g>
<!-- TrialDecryption&#45;&gt;UpdateNotes -->
<g id="edge20" class="edge">
<title>TrialDecryption&#45;&gt;UpdateNotes</title>
<path fill="none" stroke="#ff00ff" d="M434.0971,-363.4436C499.6653,-357.8346 610.4469,-348.3578 676.717,-342.6887"/>
<polygon fill="#ff00ff" stroke="#ff00ff" points="677.2917,-346.1524 686.957,-341.8127 676.695,-339.1779 677.2917,-346.1524"/>
</g>
<!-- FetchFullTxns -->
<g id="node14" class="node">
<title>FetchFullTxns</title>
<polygon fill="none" stroke="#ffa500" points="1095.096,-256 997.768,-256 997.768,-220 1095.096,-220 1095.096,-256"/>
<text text-anchor="middle" x="1046.432" y="-233.8" font-family="Times,serif" font-size="14.00" fill="#000000">FetchFullTxns</text>
</g>
<!-- TrialDecryption&#45;&gt;FetchFullTxns -->
<g id="edge19" class="edge">
<title>TrialDecryption&#45;&gt;FetchFullTxns</title>
<path fill="none" stroke="#ff00ff" d="M428.5327,-349.8763C440.3715,-345.8565 453.118,-341.9269 465.151,-339 684.9031,-285.5479 748.9191,-318.7426 968.6003,-265 975.3209,-263.3559 982.2808,-261.369 989.1495,-259.2276"/>
<polygon fill="#ff00ff" stroke="#ff00ff" points="990.6745,-262.4128 999.1094,-256.0017 988.5174,-255.7534 990.6745,-262.4128"/>
</g>
<!-- WalletTxnsData -->
<g id="node17" class="node">
<title>WalletTxnsData</title>
<ellipse fill="none" stroke="#c0c0c0" cx="380.8345" cy="-193" rx="74.1335" ry="18"/>
<text text-anchor="middle" x="380.8345" y="-188.8" font-family="Times,serif" font-size="14.00" fill="#000000">WalletTxnsData</text>
</g>
<!-- TrialDecryption&#45;&gt;WalletTxnsData -->
<g id="edge21" class="edge">
<title>TrialDecryption&#45;&gt;WalletTxnsData</title>
<path fill="none" stroke="#ff00ff" d="M380.8345,-349.9215C380.8345,-306.9964 380.8345,-264.0713 380.8345,-221.1462"/>
<polygon fill="#ff00ff" stroke="#ff00ff" points="384.3346,-221.1152 380.8345,-211.1152 377.3346,-221.1153 384.3346,-221.1152"/>
</g>
<!-- TrialDecryption&#45;&gt;End -->
<g id="edge33" class="edge">
<title>TrialDecryption&#45;&gt;End</title>
<path fill="none" stroke="#000000" d="M434.0379,-371.3736C512.778,-376.0679 665,-384 794.5681,-384 794.5681,-384 794.5681,-384 1046.432,-384 1083.1316,-384 1121.7747,-364.7794 1145.8436,-350.1721"/>
<polygon fill="#000000" stroke="#000000" points="1147.7127,-353.1313 1154.3202,-344.8493 1143.9901,-347.2031 1147.7127,-353.1313"/>
</g>
<!-- FetchTransparentTxIDs&#45;&gt;FetchFullTxns -->
<g id="edge23" class="edge">
<title>FetchTransparentTxIDs&#45;&gt;FetchFullTxns</title>
<path fill="none" stroke="#ff00ff" d="M269.3953,-102C303.3967,-102 344.1487,-102 380.8345,-102 380.8345,-102 380.8345,-102 886.8342,-102 953.5355,-102 1006.5139,-171.6691 1031.2439,-211.2785"/>
<polygon fill="#ff00ff" stroke="#ff00ff" points="1028.3209,-213.2081 1036.5019,-219.9403 1034.3047,-209.5757 1028.3209,-213.2081"/>
</g>
<!-- FetchTransparentTxIDs&#45;&gt;End -->
<g id="edge27" class="edge">
<title>FetchTransparentTxIDs&#45;&gt;End</title>
<path fill="none" stroke="#000000" d="M252.7347,-83.8903C289.1517,-74.103 337.2895,-64 380.8345,-64 380.8345,-64 380.8345,-64 1046.432,-64 1099.6371,-64 1147.3096,-239.6042 1163.7693,-307.5753"/>
<polygon fill="#000000" stroke="#000000" points="1160.4156,-308.6009 1166.139,-317.5167 1167.2248,-306.9777 1160.4156,-308.6009"/>
</g>
<!-- UpdateNotes&#45;&gt;UpdateWitnesses -->
<g id="edge17" class="edge">
<title>UpdateNotes&#45;&gt;UpdateWitnesses</title>
<path fill="none" stroke="#ff00ff" d="M758.9351,-356.0008C784.3942,-372.7213 822.4807,-397.7351 850.4727,-416.1191"/>
<polygon fill="#ff00ff" stroke="#ff00ff" points="848.8976,-419.272 859.1775,-421.8361 852.7403,-413.421 848.8976,-419.272"/>
</g>
<!-- UpdateNotes&#45;&gt;UpdateSpends -->
<g id="edge18" class="edge">
<title>UpdateNotes&#45;&gt;UpdateSpends</title>
<path fill="none" stroke="#ff00ff" d="M759.6517,-319.8908C784.9711,-303.588 822.3471,-279.5222 850.0349,-261.6945"/>
<polygon fill="#ff00ff" stroke="#ff00ff" points="852.1434,-264.4997 858.6565,-256.1432 848.3538,-258.6142 852.1434,-264.4997"/>
</g>
<!-- UpdateNotes&#45;&gt;End -->
<g id="edge30" class="edge">
<title>UpdateNotes&#45;&gt;End</title>
<path fill="none" stroke="#000000" d="M776.3773,-337.5907C859.6398,-336.8309 1037.3589,-335.2092 1122.4932,-334.4323"/>
<polygon fill="#000000" stroke="#000000" points="1122.6814,-337.9309 1132.649,-334.3397 1122.6175,-330.9312 1122.6814,-337.9309"/>
</g>
<!-- UpdateWitnesses&#45;&gt;WalletTxnsData -->
<g id="edge24" class="edge">
<title>UpdateWitnesses&#45;&gt;WalletTxnsData</title>
<path fill="none" stroke="#ff00ff" d="M876.0039,-421.6882C858.5118,-393.6923 821.3801,-340.4104 776.0681,-311 676.7895,-246.5618 540.957,-216.1432 457.1543,-202.6763"/>
<polygon fill="#ff00ff" stroke="#ff00ff" points="457.6195,-199.2066 447.1983,-201.1169 456.5362,-206.1223 457.6195,-199.2066"/>
</g>
<!-- UpdateWitnesses&#45;&gt;End -->
<g id="edge32" class="edge">
<title>UpdateWitnesses&#45;&gt;End</title>
<path fill="none" stroke="#000000" d="M943.6603,-439.7774C991.9525,-437.283 1061.6192,-428.0745 1114.2637,-398 1131.4579,-388.1774 1145.9375,-371.0041 1155.8072,-356.9186"/>
<polygon fill="#000000" stroke="#000000" points="1158.9738,-358.4783 1161.6094,-348.2165 1153.1497,-354.5949 1158.9738,-358.4783"/>
</g>
<!-- UpdateSpends&#45;&gt;FetchFullTxns -->
<g id="edge22" class="edge">
<title>UpdateSpends&#45;&gt;FetchFullTxns</title>
<path fill="none" stroke="#ff00ff" d="M935.586,-238C951.9075,-238 970.2819,-238 987.3077,-238"/>
<polygon fill="#ff00ff" stroke="#ff00ff" points="987.704,-241.5001 997.704,-238 987.7039,-234.5001 987.704,-241.5001"/>
</g>
<!-- UpdateSpends&#45;&gt;WalletTxnsData -->
<g id="edge25" class="edge">
<title>UpdateSpends&#45;&gt;WalletTxnsData</title>
<path fill="none" stroke="#ff00ff" d="M841.5105,-219.963C821.7439,-212.9668 798.0952,-205.7472 776.0681,-202 669.0039,-183.7866 543.2957,-184.65 462.894,-187.966"/>
<polygon fill="#ff00ff" stroke="#ff00ff" points="462.6698,-184.4724 452.8313,-188.4036 462.974,-191.4657 462.6698,-184.4724"/>
</g>
<!-- UpdateSpends&#45;&gt;End -->
<g id="edge31" class="edge">
<title>UpdateSpends&#45;&gt;End</title>
<path fill="none" stroke="#000000" d="M935.4901,-254.503C993.4546,-274.1633 1088.6322,-306.4454 1137.9741,-323.181"/>
<polygon fill="#000000" stroke="#000000" points="1136.898,-326.5118 1147.4923,-326.4094 1139.1464,-319.8828 1136.898,-326.5118"/>
</g>
<!-- FetchFullTxns&#45;&gt;WalletTxnsData -->
<g id="edge26" class="edge">
<title>FetchFullTxns&#45;&gt;WalletTxnsData</title>
<path fill="none" stroke="#ff00ff" d="M999.5746,-219.9272C989.4752,-216.5462 978.7746,-213.3437 968.6003,-211 750.2184,-160.6948 688.8618,-169.7802 465.151,-183 462.4172,-183.1615 459.6362,-183.3523 456.8291,-183.5672"/>
<polygon fill="#ff00ff" stroke="#ff00ff" points="456.2551,-180.1034 446.5892,-184.4417 456.8508,-187.078 456.2551,-180.1034"/>
</g>
<!-- FetchFullTxns&#45;&gt;End -->
<g id="edge29" class="edge">
<title>FetchFullTxns&#45;&gt;End</title>
<path fill="none" stroke="#000000" d="M1076.9335,-256.1758C1088.8986,-263.7154 1102.5428,-272.8344 1114.2637,-282 1126.8753,-291.8621 1140.0014,-304.0328 1150.3319,-314.1197"/>
<polygon fill="#000000" stroke="#000000" points="1148.0653,-316.8011 1157.6318,-321.3543 1152.9927,-311.8291 1148.0653,-316.8011"/>
</g>
<!-- NullifierData&#45;&gt;UpdateSpends -->
<g id="edge15" class="edge">
<title>NullifierData&#45;&gt;UpdateSpends</title>
<path fill="none" stroke="#a020f0" d="M640.0568,-411.8525C681.8737,-404.4922 734.9124,-390.6792 776.0681,-365 817.2325,-339.3155 851.5484,-293.6099 870.6132,-264.6028"/>
<polygon fill="#a020f0" stroke="#a020f0" points="639.2393,-408.4406 629.9549,-413.5445 640.3958,-415.3444 639.2393,-408.4406"/>
<polygon fill="#a020f0" stroke="#a020f0" points="873.5662,-266.4816 876.0309,-256.1774 867.6784,-262.6956 873.5662,-266.4816"/>
</g>
<!-- NodeAndWitnessData&#45;&gt;UpdateWitnesses -->
<g id="edge16" class="edge">
<title>NodeAndWitnessData&#45;&gt;UpdateWitnesses</title>
<path fill="none" stroke="#a020f0" d="M673.4904,-454.1884C721.3934,-451.0026 777.0997,-447.2979 819.575,-444.4731"/>
<polygon fill="#a020f0" stroke="#a020f0" points="672.9953,-450.7135 663.2496,-454.8695 673.4599,-457.6981 672.9953,-450.7135"/>
<polygon fill="#a020f0" stroke="#a020f0" points="820.0543,-447.949 829.8,-443.7931 819.5897,-440.9644 820.0543,-447.949"/>
</g>
<!-- StartTask -->
<g id="node19" class="node">
<title>StartTask</title>
<polygon fill="none" stroke="#000000" points="415.4862,-794 346.1828,-794 346.1828,-758 415.4862,-758 415.4862,-794"/>
<text text-anchor="middle" x="380.8345" y="-771.8" font-family="Times,serif" font-size="14.00" fill="#000000">StartTask</text>
</g>
<!-- AwaitTask -->
<g id="node20" class="node">
<title>AwaitTask</title>
<polygon fill="none" stroke="#000000" points="770.4487,-794 692.6048,-794 692.6048,-758 770.4487,-758 770.4487,-794"/>
<text text-anchor="middle" x="731.5267" y="-771.8" font-family="Times,serif" font-size="14.00" fill="#000000">AwaitTask</text>
</g>
<!-- StartTask&#45;&gt;AwaitTask -->
<g id="edge34" class="edge">
<title>StartTask&#45;&gt;AwaitTask</title>
<path fill="none" stroke="#000000" d="M415.7423,-776C478.5735,-776 610.8327,-776 682.64,-776"/>
<polygon fill="#000000" stroke="#000000" points="682.7804,-779.5001 692.7804,-776 682.7804,-772.5001 682.7804,-779.5001"/>
</g>
<!-- c -->
<!-- d -->
<!-- c&#45;&gt;d -->
<g id="edge35" class="edge">
<title>c&#45;&gt;d</title>
<path fill="none" stroke="#ff0000" d="M408.0609,-722C470.2086,-722 622.6238,-722 693.7827,-722"/>
<polygon fill="#ff0000" stroke="#ff0000" points="694.0759,-725.5001 704.0759,-722 694.0758,-718.5001 694.0759,-725.5001"/>
<text text-anchor="middle" x="571.0682" y="-726.2" font-family="Times,serif" font-size="14.00" fill="#000000">Send all data</text>
</g>
<!-- e -->
<!-- f -->
<!-- e&#45;&gt;f -->
<g id="edge36" class="edge">
<title>e&#45;&gt;f</title>
<path fill="none" stroke="#ff00ff" d="M408.0609,-668C470.2086,-668 622.6238,-668 693.7827,-668"/>
<polygon fill="#ff00ff" stroke="#ff00ff" points="694.0759,-671.5001 704.0759,-668 694.0758,-664.5001 694.0759,-671.5001"/>
<text text-anchor="middle" x="571.0682" y="-672.2" font-family="Times,serif" font-size="14.00" fill="#000000">Send some data</text>
</g>
<!-- g -->
<!-- h -->
<!-- g&#45;&gt;h -->
<g id="edge37" class="edge">
<title>g&#45;&gt;h</title>
<path fill="none" stroke="#a020f0" d="M418.3224,-614C485.6821,-614 626.4408,-614 693.9008,-614"/>
<polygon fill="#a020f0" stroke="#a020f0" points="418.061,-610.5001 408.0609,-614 418.0609,-617.5001 418.061,-610.5001"/>
<polygon fill="#a020f0" stroke="#a020f0" points="694.0759,-617.5001 704.0759,-614 694.0758,-610.5001 694.0759,-617.5001"/>
<text text-anchor="middle" x="571.0682" y="-618.2" font-family="Times,serif" font-size="14.00" fill="#000000">API</text>
</g>
<!-- CallNetwork -->
<g id="node27" class="node">
<title>CallNetwork</title>
<polygon fill="none" stroke="#ffa500" points="931.1462,-787 842.5223,-787 842.5223,-751 931.1462,-751 931.1462,-787"/>
<text text-anchor="middle" x="886.8342" y="-764.8" font-family="Times,serif" font-size="14.00" fill="#000000">CallNetwork</text>
</g>
<!-- TokioTask -->
<g id="node28" class="node">
<title>TokioTask</title>
<polygon fill="none" stroke="#000000" points="924.99,-726 848.6784,-726 848.6784,-690 924.99,-690 924.99,-726"/>
<text text-anchor="middle" x="886.8342" y="-703.8" font-family="Times,serif" font-size="14.00" fill="#000000">TokioTask</text>
</g>
<!-- ThreadSafeData -->
<g id="node29" class="node">
<title>ThreadSafeData</title>
<ellipse fill="none" stroke="#000000" cx="886.8342" cy="-641" rx="73.5329" ry="18"/>
<text text-anchor="middle" x="886.8342" y="-636.8" font-family="Times,serif" font-size="14.00" fill="#000000">ThreadSafeData</text>
</g>
</g>
</svg>
